<?xml version="1.0" encoding="UTF-8"?>
<svg width="247" height="80" 
viewBox="0 0 247 80" 
preserveAspectRatio="xMinYMin"
xmlns:xlink="http://www.w3.org/1999/xlink"
xmlns="http://www.w3.org/2000/svg">
<!-- Generated by PQINA - https://pqina.nl/ -->
<title></title>
<g transform="rotate(NaN 123.5 40) translate(123.5 40) scale(NaN) translate(-123.5 -40) translate(0 0)">
<g transform="scale(1 1) translate(0 0)">
<svg width="247" height="80" viewBox="0 0 247 80" fill="none" xmlns="http://www.w3.org/2000/svg" style="overflow: visible;">
<g clip-path="url(#clip0_3_41)">
<g clip-path="url(#clip1_3_41)">
<path d="M51.5036 41.9999L51.6167 44.1537C51.6236 44.309 51.5748 44.4617 51.479 44.5841C51.3832 44.7066 51.2468 44.7907 51.0944 44.8214C50.1286 45.0174 49.1495 45.1407 48.1652 45.1902C44.2453 45.1902 43.0499 43.6906 43.0499 38.7772V31.255H41.5449C41.3733 31.2543 41.209 31.1857 41.0879 31.064C40.9668 30.9424 40.8988 30.7778 40.8988 30.6062V28.3851C40.8995 28.2142 40.9679 28.0505 41.089 27.9299C41.2101 27.8093 41.374 27.7416 41.5449 27.7416H43.0499V25.1005C43.0498 24.9563 43.098 24.8161 43.1868 24.7024C43.2756 24.5888 43.3999 24.5081 43.5399 24.4732L46.1406 23.8405C46.2363 23.8153 46.3365 23.8124 46.4334 23.8322C46.5303 23.8519 46.6214 23.8938 46.6996 23.9545C46.7777 24.0152 46.8408 24.093 46.8839 24.1821C46.9271 24.2711 46.9491 24.3689 46.9483 24.4678V27.7416H50.9113C51.0818 27.7423 51.245 27.8103 51.3655 27.9309C51.4861 28.0514 51.5541 28.2146 51.5548 28.3851V30.6062C51.5548 30.7774 51.4872 30.9416 51.3666 31.0631C51.2461 31.1846 51.0825 31.2536 50.9113 31.255H46.9375V38.2146C46.9375 40.6215 47.0237 41.4453 48.7117 41.4453C49.3337 41.4453 50.311 41.4049 50.8333 41.3753C50.9183 41.3721 51.0032 41.3857 51.083 41.4153C51.1628 41.445 51.236 41.4902 51.2983 41.5482C51.3606 41.6063 51.4108 41.6761 51.446 41.7536C51.4813 41.8311 51.5009 41.9148 51.5036 41.9999ZM39.2296 36.1684C39.2296 42.3607 36.8738 45.1364 31.5943 45.1364C26.3147 45.1364 23.9186 42.3607 23.9186 36.1684C23.9186 30.057 26.2851 27.3324 31.5943 27.3324C36.8038 27.3324 39.2296 30.1377 39.2296 36.1684ZM35.2746 36.1684C35.2746 32.3616 34.2408 30.8808 31.5943 30.8808C28.8482 30.8808 27.8843 32.2619 27.8843 36.1684C27.8843 39.7115 28.4766 41.6257 31.605 41.6257C34.6715 41.6257 35.2746 39.6253 35.2746 36.1684ZM97.2911 27.992C97.232 27.9138 97.1555 27.8504 97.0677 27.8069C96.9798 27.7635 96.883 27.7411 96.785 27.7416H94.2596C94.1176 27.7417 93.9796 27.7887 93.8671 27.8754C93.7546 27.9621 93.674 28.0835 93.6377 28.2208L90.2562 40.9768H89.987L86.6082 28.2208C86.5718 28.0831 86.4908 27.9613 86.3777 27.8746C86.2647 27.7878 86.126 27.7411 85.9836 27.7416H83.4636C83.3647 27.7408 83.2669 27.7629 83.1779 27.806C83.0888 27.8491 83.0109 27.9122 82.9503 27.9904C82.8896 28.0685 82.8477 28.1596 82.828 28.2565C82.8082 28.3535 82.811 28.4536 82.8363 28.5493L86.5597 42.856C86.7482 43.5641 87.4024 44.7649 88.7001 44.7649H89.4216C89.3597 45.0045 89.2951 45.2602 89.2251 45.4783L89.1901 45.5887C88.9881 46.2483 88.6839 47.2444 86.8424 47.2444L83.6117 47.0479C83.5214 47.0408 83.4307 47.0532 83.3457 47.0844C83.2606 47.1155 83.1833 47.1646 83.119 47.2283C83.0537 47.2921 83.0027 47.369 82.9693 47.4539C82.9359 47.5388 82.9208 47.6298 82.9251 47.721L83.0059 49.4063C83.0105 49.546 83.061 49.6802 83.1496 49.7883C83.2382 49.8963 83.3599 49.9721 83.4959 50.004C84.8954 50.3172 86.3197 50.5064 87.7524 50.5694H87.957C90.3801 50.5694 92.0358 48.9971 92.8677 45.901C93.8315 42.2718 95.0404 37.6088 95.9234 34.2004L96.9115 30.4016L97.3961 28.5466C97.4232 28.4524 97.4278 28.3531 97.4095 28.2568C97.3913 28.1605 97.3507 28.0698 97.2911 27.992ZM21.5494 43.8603C21.591 43.959 21.6082 44.0663 21.5998 44.1731C21.5914 44.2799 21.5575 44.3831 21.5009 44.4741C21.4412 44.5623 21.361 44.6348 21.2673 44.6854C21.1736 44.736 21.069 44.7633 20.9625 44.7649H17.9391C17.8138 44.766 17.691 44.73 17.586 44.6615C17.4811 44.593 17.3988 44.495 17.3495 44.3799L13.4834 35.6838C11.5611 35.6838 9.89186 35.5681 8.98995 35.5034V44.1187C8.9903 44.2034 8.97392 44.2874 8.94174 44.3658C8.90957 44.4442 8.86223 44.5154 8.80244 44.5755C8.74266 44.6355 8.6716 44.6831 8.59336 44.7156C8.51511 44.7481 8.43122 44.7649 8.3465 44.7649H5.65422C5.56879 44.7656 5.48406 44.7494 5.40489 44.7173C5.32572 44.6852 5.25368 44.6377 5.19289 44.5777C5.13211 44.5177 5.08378 44.4462 5.05067 44.3674C5.01757 44.2887 5.00035 44.2042 5 44.1187V22.3113C4.99979 22.1522 5.05857 21.9986 5.16498 21.8802C5.27139 21.7619 5.41787 21.6872 5.57615 21.6705C7.98951 21.3941 10.4162 21.2494 12.8453 21.2371H13.3837C20.0229 21.2371 21.4229 25.1597 21.4229 28.4443C21.4229 31.1877 20.1144 33.1719 17.4195 34.51L21.5494 43.8603ZM13.3676 24.9793H11.9434C10.9518 24.9571 9.96036 25.0274 8.98187 25.1893V31.92C9.74109 31.9739 11.2057 32.0493 13.1684 32.0277C15.7045 32.0035 17.2822 30.6574 17.2822 28.5278C17.2902 26.8047 16.2591 24.9793 13.3676 24.9793ZM67.3746 33.0966V44.3826C67.3744 44.4738 67.355 44.564 67.3176 44.6472C67.2802 44.7304 67.2257 44.8048 67.1576 44.8655C67.0895 44.9262 67.0094 44.9719 66.9224 44.9996C66.8355 45.0272 66.7437 45.0362 66.653 45.026C65.7072 44.9276 64.8111 44.5531 64.0765 43.9491C64.0496 43.9626 61.1312 45.1391 58.517 45.1391C55.3751 45.1391 53.5713 43.1549 53.5713 39.6872C53.5713 36.3004 55.2244 34.8008 59.2708 34.4965L63.5004 34.16V33.1316C63.5004 31.8339 62.725 31.0881 61.3816 31.0881C59.5293 31.0881 56.8855 31.3035 55.4801 31.43C55.3921 31.4393 55.3031 31.4302 55.2188 31.4033C55.1344 31.3764 55.0566 31.3323 54.9901 31.2739C54.925 31.2159 54.872 31.1456 54.8341 31.0671C54.7962 30.9885 54.7742 30.9033 54.7694 30.8162L54.6886 28.6624C54.6806 28.5047 54.7312 28.3496 54.8306 28.2268C54.9299 28.1041 55.0711 28.0224 55.227 27.9974C56.487 27.7982 59.6289 27.3405 61.5889 27.3405C65.5331 27.3324 67.3746 29.1685 67.3746 33.0966ZM59.7312 37.4042C58.2047 37.5496 57.4832 38.2469 57.4832 39.5903C57.4832 40.4195 57.7066 41.8141 59.2197 41.8141C61.0181 41.8141 63.4573 41.133 63.4869 41.1276V37.1915L59.7312 37.4042ZM79.996 27.6259C78.281 27.7282 76.5875 28.7028 75.5349 29.4593V28.3851C75.5349 28.3001 75.518 28.216 75.4854 28.1376C75.4527 28.0592 75.4048 27.988 75.3445 27.9282C75.2842 27.8683 75.2126 27.8211 75.1339 27.789C75.0552 27.757 74.971 27.7409 74.886 27.7416H72.2907C72.2056 27.7409 72.1212 27.757 72.0424 27.789C71.9635 27.821 71.8918 27.8682 71.8312 27.928C71.7707 27.9878 71.7226 28.0589 71.6896 28.1374C71.6566 28.2158 71.6395 28.3 71.6391 28.3851V44.1187C71.6391 44.204 71.656 44.2885 71.6888 44.3672C71.7216 44.446 71.7697 44.5175 71.8303 44.5775C71.8909 44.6376 71.9627 44.6851 72.0417 44.7172C72.1208 44.7494 72.2054 44.7656 72.2907 44.7649H74.886C74.9711 44.7652 75.0554 44.7488 75.1341 44.7165C75.2128 44.6841 75.2844 44.6366 75.3447 44.5766C75.4049 44.5165 75.4528 44.4452 75.4854 44.3666C75.5181 44.288 75.5349 44.2038 75.5349 44.1187V33.2446C76.1191 32.7546 77.9337 31.395 80.0956 31.2066C80.2562 31.1912 80.4054 31.1164 80.5139 30.997C80.6225 30.8775 80.6825 30.7218 80.6825 30.5604V28.2558C80.6819 28.1678 80.6634 28.0808 80.6282 28.0002C80.5929 27.9195 80.5416 27.8469 80.4774 27.7867C80.4131 27.7265 80.3373 27.68 80.2546 27.6501C80.1718 27.6201 80.0838 27.6073 79.996 27.6124V27.6259Z" fill="#17458F"></path>
<path d="M164.652 34.0685V33.985L164.587 33.9473C163.192 33.1502 161.617 32.723 160.01 32.7062C159.978 32.4908 159.773 30.9616 159.741 30.7435C161.291 30.3145 162.704 29.494 163.844 28.3609L163.901 28.3097L163.884 28.2262C163.788 27.5815 163.62 26.9495 163.384 26.3416L163.351 26.2663L163.273 26.2474C161.722 25.8433 160.092 25.8433 158.54 26.2474C158.465 26.0455 157.883 24.6321 157.8 24.4382C159.171 23.616 160.316 22.466 161.133 21.0917L161.171 21.0298L161.152 20.9571C160.886 20.3652 160.561 19.8015 160.183 19.2744L160.137 19.2098H160.051C158.448 19.2203 156.874 19.6341 155.474 20.4133C155.345 20.2356 154.397 19.0052 154.27 18.8329C155.394 17.6893 156.209 16.2795 156.64 14.7353L156.661 14.6545L156.605 14.5926C156.199 14.0797 155.738 13.6138 155.229 13.2034L155.17 13.1576H155.086C153.543 13.5891 152.134 14.402 150.989 15.5214C150.811 15.3841 149.583 14.423 149.405 14.2776C150.188 12.9263 150.617 11.3992 150.652 9.83801V9.63879L150.59 9.59032C150.068 9.19667 149.499 8.86846 148.897 8.61303L148.827 8.58611L148.759 8.62111C147.378 9.42442 146.224 10.5658 145.405 11.938C145.195 11.8572 143.701 11.2299 143.504 11.1303C143.708 10.3486 143.816 9.54479 143.824 8.73687C143.832 7.94821 143.724 7.16265 143.504 6.40537L143.485 6.32998L143.407 6.30037C142.807 6.05931 142.181 5.88769 141.541 5.78883L141.452 5.77537L141.401 5.82922C140.276 6.97213 139.46 8.38211 139.029 9.92686C138.809 9.88917 137.263 9.69802 137.029 9.67379C137.019 8.06812 136.596 6.492 135.801 5.09692L135.764 5.05654H135.683C135.035 4.98385 134.381 4.98385 133.734 5.05654H133.648L133.61 5.12923C132.821 6.52085 132.399 8.09037 132.385 9.68994C132.161 9.71955 130.592 9.91071 130.366 9.95917C129.937 8.41112 129.121 6.99799 127.994 5.85345L127.935 5.79422H127.848C127.209 5.89461 126.582 6.06247 125.977 6.29498L125.902 6.32729L125.872 6.40267C125.665 7.17156 125.561 7.96469 125.563 8.7611C125.577 9.56058 125.685 10.3557 125.883 11.1303C125.687 11.2138 124.179 11.8626 123.977 11.938C123.16 10.5621 122.011 9.41264 120.636 8.59418L120.566 8.55111L120.482 8.58072C119.891 8.85057 119.328 9.17886 118.802 9.56071L118.732 9.60379V9.81917C118.763 11.3879 119.185 12.9241 119.96 14.2883C119.79 14.4283 118.657 15.3168 118.485 15.4541C117.34 14.3297 115.929 13.5129 114.384 13.0795L114.309 13.0634L114.252 13.1172C113.737 13.5181 113.269 13.9781 112.861 14.4876L112.809 14.5522L112.828 14.6303C113.259 16.1751 114.071 17.5869 115.189 18.736C115.066 18.9083 114.077 20.1952 113.94 20.3729C112.546 19.5752 110.97 19.1496 109.363 19.1371H109.288L109.239 19.2044C108.855 19.7308 108.527 20.2967 108.262 20.8925L108.23 20.9625L108.27 21.0379C109.087 22.4189 110.236 23.5732 111.614 24.3951C111.539 24.5944 110.965 25.989 110.879 26.1909C109.325 25.7825 107.692 25.7825 106.138 26.1909L106.06 26.2097L106.033 26.2797C105.792 26.8867 105.621 27.5189 105.521 28.1643V28.2451L105.578 28.3097C106.72 29.4325 108.132 30.242 109.678 30.6601C109.646 30.8808 109.444 32.4262 109.409 32.6362C107.804 32.6511 106.229 33.0735 104.832 33.8639L104.759 33.9042V33.985C104.688 34.6337 104.688 35.2883 104.759 35.9369V36.015L104.832 36.0527C106.228 36.8464 107.804 37.2682 109.409 37.2777C109.441 37.5011 109.659 39.0869 109.678 39.3049C108.136 39.7451 106.729 40.5652 105.586 41.6903L105.529 41.7576V41.8303C105.633 42.4744 105.804 43.106 106.038 43.7149L106.071 43.7849L106.143 43.8118C107.699 44.2146 109.331 44.2146 110.887 43.8118C110.968 44.011 111.582 45.4272 111.668 45.6183C110.291 46.4315 109.141 47.5788 108.324 48.9541L108.289 49.0267L108.316 49.1021C108.583 49.6967 108.911 50.2617 109.296 50.7875L109.344 50.8521H109.42C111.024 50.8431 112.599 50.4261 113.997 49.6406C114.131 49.8075 115.098 51.0675 115.224 51.2398C114.098 52.3793 113.283 53.7881 112.855 55.332L112.836 55.4074L112.885 55.472C113.297 55.9765 113.757 56.4399 114.258 56.8559L114.322 56.9124L114.401 56.8855C115.946 56.4606 117.358 55.65 118.504 54.5298C118.681 54.6698 119.933 55.6309 120.119 55.7682C119.353 57.1455 118.934 58.6887 118.899 60.2643V60.4285L118.972 60.4851C119.498 60.8638 120.06 61.1903 120.649 61.4597L120.722 61.4866L120.8 61.4489C122.185 60.632 123.339 59.4768 124.155 58.0916L125.926 58.8105C125.724 59.5842 125.619 60.38 125.614 61.1797C125.609 61.977 125.717 62.771 125.934 63.5381L125.95 63.6162L126.031 63.6458C126.639 63.8858 127.271 64.06 127.916 64.1654H128.002L128.058 64.1008C129.183 62.964 129.993 61.5535 130.406 60.0085C130.632 60.0462 132.215 60.2778 132.436 60.2939C132.452 61.8938 132.878 63.4629 133.672 64.8519L133.704 64.9219H133.793C134.44 64.9946 135.093 64.9946 135.739 64.9219H135.818L135.858 64.8519C136.647 63.4538 137.072 61.8802 137.096 60.2751C137.317 60.2454 138.798 60.0381 139.019 60.0058C139.44 61.555 140.255 62.9687 141.385 64.1089L141.444 64.1627H141.517C142.16 64.0568 142.791 63.8882 143.402 63.6593L143.472 63.6243L143.496 63.5516C143.707 62.7834 143.81 61.9897 143.803 61.1931C143.797 60.3859 143.694 59.5823 143.496 58.7997C143.701 58.7216 145.136 58.0997 145.337 58.0109C146.156 59.3878 147.306 60.5389 148.681 61.36L148.746 61.3924L148.824 61.3627C149.424 61.1017 149.993 60.7719 150.517 60.3801L150.579 60.3424V60.1243C150.537 58.5653 150.122 57.0391 149.368 55.674C149.54 55.5394 150.714 54.6186 150.894 54.4813C152.048 55.5979 153.46 56.411 155.005 56.8478L155.081 56.8693L155.14 56.8155C155.646 56.4042 156.11 55.9443 156.527 55.4424L156.58 55.3724L156.553 55.3024C156.13 53.7569 155.321 52.3442 154.203 51.1967C154.335 51.0217 155.28 49.7644 155.42 49.5814C156.817 50.3694 158.393 50.7857 159.997 50.7902H160.078L160.126 50.731C160.522 50.2091 160.851 49.6392 161.103 49.0348L161.136 48.9675L161.098 48.8948C160.284 47.5222 159.147 46.3688 157.786 45.5349C157.867 45.3356 158.435 43.9491 158.519 43.7499C160.067 44.1634 161.696 44.1634 163.244 43.7499L163.314 43.7257L163.346 43.6557C163.583 43.0474 163.756 42.4157 163.86 41.7711V41.6903L163.801 41.6284C162.666 40.5041 161.262 39.6902 159.722 39.2646C159.757 39.0492 159.967 37.563 159.991 37.345C161.597 37.3307 163.173 36.9062 164.568 36.1119L164.633 36.0688V35.9854C164.672 35.662 164.69 35.3365 164.687 35.0108C164.695 34.6962 164.683 34.3815 164.652 34.0685ZM134.711 57.3028C130.265 57.3039 125.918 55.9863 122.22 53.5168C118.522 51.0472 115.64 47.5366 113.938 43.429C112.236 39.3213 111.79 34.801 112.656 30.4399C113.523 26.0787 115.664 22.0726 118.808 18.9281C121.951 15.7836 125.957 13.642 130.318 12.7742C134.679 11.9063 139.199 12.3512 143.307 14.0525C147.415 15.7539 150.927 18.6353 153.397 22.3323C155.868 26.0293 157.186 30.3759 157.186 34.8223C157.18 40.7816 154.81 46.4951 150.597 50.7094C146.383 54.9238 140.67 57.295 134.711 57.3028Z" fill="#F7A81B"></path>
<path d="M134.711 15.0476C130.799 15.047 126.975 16.2066 123.722 18.3795C120.469 20.5525 117.934 23.6413 116.437 27.2553C114.94 30.8692 114.548 34.846 115.311 38.6827C116.074 42.5194 117.958 46.0437 120.724 48.8098C123.49 51.5758 127.014 53.4595 130.851 54.2226C134.687 54.9856 138.664 54.5937 142.278 53.0965C145.892 51.5992 148.981 49.0639 151.154 45.8111C153.327 42.5583 154.486 38.7341 154.486 34.8223C154.481 29.5793 152.396 24.5524 148.688 20.845C144.981 17.1376 139.954 15.0526 134.711 15.0476ZM137.191 18.2271C137.294 18.166 137.41 18.1294 137.53 18.12C137.65 18.1107 137.771 18.1289 137.883 18.1733C141.856 19.1344 144.772 20.8117 147.62 23.8055C147.794 23.9566 147.905 24.1667 147.933 24.3951V24.4651C147.874 24.7344 147.569 24.8824 147.297 25.0036L138.978 29.042C138.846 29.1196 138.696 29.1621 138.543 29.1654C138.39 29.1687 138.239 29.1327 138.103 29.0608C137.974 28.9782 137.867 28.8644 137.793 28.7299C137.718 28.5954 137.679 28.4445 137.678 28.2909L137.008 19.0752C136.981 18.6337 137.04 18.3618 137.191 18.2271ZM121.745 23.8809C124.591 20.8925 127.504 19.2044 131.478 18.2514C131.588 18.2064 131.707 18.1882 131.826 18.198C131.945 18.2078 132.06 18.2455 132.161 18.3079C132.331 18.4371 132.388 18.7091 132.358 19.1506L131.698 28.3609C131.701 28.5143 131.664 28.6659 131.591 28.8008C131.518 28.9358 131.411 29.0495 131.281 29.1308C131.146 29.2027 130.994 29.2387 130.841 29.2354C130.688 29.2321 130.538 29.1896 130.406 29.112L122.092 25.0736C121.823 24.939 121.503 24.8044 121.449 24.5351C121.446 24.4093 121.473 24.2846 121.525 24.1704C121.578 24.0561 121.656 23.9553 121.753 23.8755L121.745 23.8809ZM119.772 40.9607C119.411 41.2084 119.144 41.2972 118.94 41.2299C118.735 41.1626 118.638 40.9015 118.565 40.6565C117.389 36.7311 117.389 33.3658 118.552 29.4081C118.652 29.0689 118.794 28.8697 118.975 28.8158C119.244 28.7189 119.513 28.9155 119.782 29.0851L127.423 34.2839C127.556 34.3603 127.667 34.4689 127.747 34.5997C127.827 34.7304 127.873 34.8792 127.881 35.0323C127.87 35.183 127.824 35.3292 127.747 35.4588C127.669 35.5884 127.562 35.6978 127.434 35.7781L119.772 40.9607ZM132.318 51.7836C132.213 51.8429 132.096 51.8772 131.976 51.8838C131.856 51.8903 131.736 51.8689 131.626 51.8213C127.655 50.8736 124.733 49.1937 121.893 46.1972C121.722 46.0519 121.612 45.8469 121.586 45.6237C121.582 45.596 121.582 45.5679 121.586 45.5402C121.624 45.271 121.944 45.1256 122.214 45.0018L130.533 40.9634C130.663 40.8809 130.814 40.8357 130.968 40.8325C131.122 40.8293 131.275 40.8684 131.409 40.9454C131.542 41.0224 131.653 41.1345 131.727 41.2696C131.802 41.4046 131.839 41.5575 131.833 41.7118L132.506 50.9463C132.549 51.3744 132.485 51.6436 132.326 51.7836H132.318ZM134.687 40.2715C133.526 40.2682 132.398 39.8914 131.468 39.1968C130.538 38.5022 129.857 37.5268 129.525 36.4148C129.192 35.3029 129.227 34.1135 129.623 33.0227C130.02 31.932 130.757 30.9978 131.725 30.3585C131.845 30.2795 131.979 30.2248 132.119 30.1975C132.26 30.1702 132.405 30.1709 132.545 30.1996C132.685 30.2282 132.819 30.2842 132.937 30.3644C133.056 30.4445 133.158 30.5473 133.237 30.6668C133.316 30.7863 133.371 30.9202 133.398 31.0608C133.425 31.2015 133.425 31.3461 133.396 31.4865C133.367 31.6269 133.311 31.7602 133.231 31.879C133.151 31.9977 133.048 32.0995 132.929 32.1785C132.347 32.5596 131.903 33.1185 131.665 33.7718C131.426 34.4251 131.404 35.1381 131.603 35.8047C131.802 36.4713 132.211 37.056 132.768 37.4716C133.326 37.8873 134.003 38.1118 134.699 38.1118C135.395 38.1118 136.072 37.8873 136.629 37.4716C137.187 37.056 137.596 36.4713 137.795 35.8047C137.994 35.1381 137.972 34.4251 137.733 33.7718C137.494 33.1185 137.051 32.5596 136.469 32.1785C136.228 32.0189 136.06 31.77 136.002 31.4865C135.944 31.203 136.001 30.9081 136.161 30.6668C136.32 30.4254 136.569 30.2574 136.853 30.1996C137.136 30.1418 137.431 30.1989 137.673 30.3585C138.642 30.9974 139.38 31.9317 139.778 33.0229C140.175 34.1142 140.21 35.3044 139.877 36.4171C139.545 37.5298 138.863 38.5059 137.933 39.2006C137.002 39.8953 135.872 40.2718 134.711 40.2742L134.687 40.2715ZM147.631 46.0895C144.796 49.0725 141.894 50.7525 137.899 51.7109C137.783 51.7566 137.658 51.7748 137.533 51.764C137.409 51.7533 137.289 51.7139 137.183 51.649C136.973 51.474 136.999 51.1106 137.021 50.8198L137.683 41.5988C137.689 41.4434 137.731 41.2915 137.807 41.1557C137.883 41.02 137.99 40.9042 138.119 40.818C138.256 40.7534 138.405 40.7221 138.556 40.7268C138.707 40.7315 138.854 40.772 138.986 40.8449L147.308 44.8833C147.699 45.0745 147.906 45.2629 147.946 45.4703C147.987 45.6776 147.825 45.8929 147.639 46.0841L147.631 46.0895ZM150.437 28.7674C150.66 28.8428 150.749 29.0905 150.816 29.3355C151.987 33.2635 151.987 36.6261 150.816 40.5865C150.722 40.9257 150.585 41.1249 150.404 41.1868C150.135 41.2676 149.866 41.0792 149.618 40.9015L141.967 35.7108C141.833 35.6339 141.72 35.525 141.639 35.3939C141.558 35.2628 141.51 35.1136 141.501 34.9596C141.511 34.8059 141.559 34.657 141.64 34.526C141.722 34.3951 141.834 34.286 141.967 34.2085L149.618 29.0205C149.971 28.7674 150.243 28.6893 150.445 28.762L150.437 28.7674Z" fill="#F7A81B"></path>
</g>
</g>
<path d="M180.409 42H176.219V29.6364H180.494C181.721 29.6364 182.776 29.8839 183.657 30.3789C184.542 30.8699 185.223 31.5762 185.697 32.4979C186.172 33.4195 186.41 34.5223 186.41 35.8061C186.41 37.094 186.17 38.2008 185.691 39.1264C185.217 40.0521 184.53 40.7624 183.633 41.2575C182.739 41.7525 181.665 42 180.409 42ZM178.459 40.0621H180.3C181.162 40.0621 181.88 39.9052 182.456 39.5913C183.031 39.2733 183.464 38.8004 183.754 38.1726C184.043 37.5407 184.188 36.7519 184.188 35.8061C184.188 34.8603 184.043 34.0755 183.754 33.4517C183.464 32.8239 183.035 32.355 182.468 32.0451C181.904 31.7312 181.204 31.5742 180.367 31.5742H178.459V40.0621ZM189.384 39.706V37.9251L194.63 29.6364H196.115V32.1719H195.209L191.678 37.7681V37.8647H199.001V39.706H189.384ZM195.282 42V39.1626L195.306 38.3658V29.6364H197.419V42H195.282ZM202.572 42L207.83 31.5923V31.5078H201.727V29.6364H210.148V31.5501L204.896 42H202.572ZM217.442 42.169C216.572 42.169 215.8 42.0201 215.124 41.7223C214.452 41.4245 213.92 41.0099 213.53 40.4787C213.139 39.9474 212.932 39.3337 212.908 38.6374H215.178C215.198 38.9715 215.309 39.2633 215.51 39.5128C215.711 39.7583 215.979 39.9495 216.313 40.0863C216.647 40.2231 217.021 40.2915 217.436 40.2915C217.878 40.2915 218.271 40.2151 218.613 40.0621C218.955 39.9052 219.223 39.6879 219.416 39.4102C219.609 39.1325 219.704 38.8125 219.7 38.4503C219.704 38.076 219.607 37.746 219.41 37.4602C219.213 37.1745 218.927 36.9511 218.553 36.7901C218.182 36.6291 217.736 36.5487 217.212 36.5487H216.12V34.8221H217.212C217.643 34.8221 218.019 34.7476 218.341 34.5987C218.667 34.4498 218.923 34.2405 219.108 33.9709C219.293 33.6972 219.384 33.3813 219.38 33.0231C219.384 32.6729 219.305 32.3691 219.144 32.1115C218.987 31.8499 218.764 31.6467 218.474 31.5018C218.188 31.3569 217.852 31.2844 217.466 31.2844C217.088 31.2844 216.737 31.3529 216.416 31.4897C216.094 31.6265 215.834 31.8217 215.637 32.0753C215.44 32.3248 215.335 32.6226 215.323 32.9688H213.168C213.184 32.2765 213.383 31.6688 213.765 31.1456C214.152 30.6184 214.667 30.2079 215.311 29.9141C215.955 29.6162 216.677 29.4673 217.478 29.4673C218.303 29.4673 219.019 29.6223 219.627 29.9322C220.239 30.238 220.712 30.6506 221.046 31.1697C221.38 31.6889 221.547 32.2624 221.547 32.8903C221.551 33.5865 221.346 34.1701 220.931 34.641C220.521 35.1119 219.981 35.4197 219.313 35.5646V35.6612C220.183 35.782 220.849 36.1039 221.311 36.6271C221.778 37.1463 222.01 37.7923 222.006 38.565C222.006 39.2572 221.809 39.877 221.414 40.4244C221.024 40.9677 220.484 41.3943 219.796 41.7042C219.112 42.0141 218.327 42.169 217.442 42.169ZM229.838 42.2354C228.844 42.2354 227.991 41.9839 227.278 41.4808C226.57 40.9737 226.025 40.2433 225.642 39.2894C225.264 38.3316 225.075 37.1785 225.075 35.8303C225.079 34.482 225.27 33.335 225.648 32.3892C226.031 31.4394 226.576 30.715 227.284 30.2159C227.997 29.7169 228.848 29.4673 229.838 29.4673C230.828 29.4673 231.679 29.7169 232.391 30.2159C233.104 30.715 233.649 31.4394 234.027 32.3892C234.41 33.339 234.601 34.486 234.601 35.8303C234.601 37.1825 234.41 38.3376 234.027 39.2955C233.649 40.2493 233.104 40.9777 232.391 41.4808C231.683 41.9839 230.832 42.2354 229.838 42.2354ZM229.838 40.3459C230.611 40.3459 231.22 39.9656 231.667 39.2049C232.118 38.4402 232.343 37.3153 232.343 35.8303C232.343 34.8482 232.241 34.0232 232.035 33.3551C231.83 32.687 231.54 32.1839 231.166 31.8459C230.792 31.5038 230.349 31.3327 229.838 31.3327C229.069 31.3327 228.461 31.7151 228.015 32.4798C227.568 33.2404 227.343 34.3572 227.339 35.8303C227.335 36.8163 227.433 37.6454 227.634 38.3175C227.84 38.9896 228.129 39.4967 228.504 39.8388C228.878 40.1768 229.323 40.3459 229.838 40.3459Z" fill="#17458F"></path>
<path d="M37.1193 64H35.5341C35.4403 63.544 35.2763 63.1435 35.0419 62.7983C34.8118 62.4531 34.5305 62.1634 34.1982 61.929C33.87 61.6903 33.5057 61.5114 33.1051 61.392C32.7045 61.2727 32.2869 61.2131 31.8523 61.2131C31.0597 61.2131 30.3416 61.4134 29.6982 61.8139C29.0589 62.2145 28.5497 62.8047 28.1705 63.5845C27.7955 64.3643 27.608 65.321 27.608 66.4545C27.608 67.5881 27.7955 68.5447 28.1705 69.3246C28.5497 70.1044 29.0589 70.6946 29.6982 71.0952C30.3416 71.4957 31.0597 71.696 31.8523 71.696C32.2869 71.696 32.7045 71.6364 33.1051 71.517C33.5057 71.3977 33.87 71.2209 34.1982 70.9865C34.5305 70.7479 34.8118 70.456 35.0419 70.1108C35.2763 69.7614 35.4403 69.3608 35.5341 68.9091H37.1193C37 69.5781 36.7827 70.1768 36.4673 70.7053C36.152 71.2337 35.7599 71.6832 35.2912 72.054C34.8224 72.4205 34.2962 72.6996 33.7124 72.8913C33.1328 73.0831 32.5128 73.179 31.8523 73.179C30.7358 73.179 29.7429 72.9062 28.8736 72.3608C28.0043 71.8153 27.3203 71.0398 26.8217 70.0341C26.3232 69.0284 26.0739 67.8352 26.0739 66.4545C26.0739 65.0739 26.3232 63.8807 26.8217 62.875C27.3203 61.8693 28.0043 61.0938 28.8736 60.5483C29.7429 60.0028 30.7358 59.7301 31.8523 59.7301C32.5128 59.7301 33.1328 59.826 33.7124 60.0178C34.2962 60.2095 34.8224 60.4908 35.2912 60.8615C35.7599 61.228 36.152 61.6754 36.4673 62.2038C36.7827 62.728 37 63.3267 37.1193 64ZM43.465 73.2045C42.5787 73.2045 41.801 72.9936 41.1319 72.5717C40.4672 72.1499 39.9473 71.5597 39.5723 70.8011C39.2015 70.0426 39.0162 69.1562 39.0162 68.142C39.0162 67.1193 39.2015 66.2266 39.5723 65.4638C39.9473 64.701 40.4672 64.1087 41.1319 63.6868C41.801 63.2649 42.5787 63.054 43.465 63.054C44.3514 63.054 45.127 63.2649 45.7917 63.6868C46.4608 64.1087 46.9806 64.701 47.3514 65.4638C47.7264 66.2266 47.9139 67.1193 47.9139 68.142C47.9139 69.1562 47.7264 70.0426 47.3514 70.8011C46.9806 71.5597 46.4608 72.1499 45.7917 72.5717C45.127 72.9936 44.3514 73.2045 43.465 73.2045ZM43.465 71.8494C44.1383 71.8494 44.6923 71.6768 45.127 71.3317C45.5616 70.9865 45.8833 70.5327 46.0922 69.9702C46.301 69.4077 46.4054 68.7983 46.4054 68.142C46.4054 67.4858 46.301 66.8743 46.0922 66.3075C45.8833 65.7408 45.5616 65.2827 45.127 64.9332C44.6923 64.5838 44.1383 64.4091 43.465 64.4091C42.7917 64.4091 42.2377 64.5838 41.8031 64.9332C41.3684 65.2827 41.0467 65.7408 40.8379 66.3075C40.6291 66.8743 40.5247 67.4858 40.5247 68.142C40.5247 68.7983 40.6291 69.4077 40.8379 69.9702C41.0467 70.5327 41.3684 70.9865 41.8031 71.3317C42.2377 71.6768 42.7917 71.8494 43.465 71.8494ZM51.7251 67.0938V73H50.2166V63.1818H51.674V64.7159H51.8018C52.032 64.2173 52.3814 63.8168 52.8501 63.5142C53.3189 63.2074 53.924 63.054 54.6655 63.054C55.3303 63.054 55.9119 63.1903 56.4105 63.4631C56.9091 63.7315 57.2969 64.1406 57.5739 64.6903C57.8509 65.2358 57.9893 65.9261 57.9893 66.7614V73H56.4808V66.8636C56.4808 66.0923 56.2805 65.4915 55.88 65.0611C55.4794 64.6264 54.9297 64.4091 54.2308 64.4091C53.7493 64.4091 53.3189 64.5135 52.9396 64.7223C52.5646 64.9311 52.2685 65.2358 52.0511 65.6364C51.8338 66.0369 51.7251 66.5227 51.7251 67.0938ZM62.2544 67.0938V73H60.7459V63.1818H62.2033V64.7159H62.3311C62.5613 64.2173 62.9107 63.8168 63.3794 63.5142C63.8482 63.2074 64.4533 63.054 65.1948 63.054C65.8596 63.054 66.4412 63.1903 66.9398 63.4631C67.4384 63.7315 67.8262 64.1406 68.1032 64.6903C68.3801 65.2358 68.5186 65.9261 68.5186 66.7614V73H67.0101V66.8636C67.0101 66.0923 66.8098 65.4915 66.4093 65.0611C66.0087 64.6264 65.459 64.4091 64.7601 64.4091C64.2786 64.4091 63.8482 64.5135 63.4689 64.7223C63.0939 64.9311 62.7978 65.2358 62.5804 65.6364C62.3631 66.0369 62.2544 66.5227 62.2544 67.0938ZM75.3917 73.2045C74.4457 73.2045 73.6296 72.9957 72.9435 72.5781C72.2617 72.1562 71.7354 71.5682 71.3647 70.8139C70.9982 70.0554 70.815 69.1733 70.815 68.1676C70.815 67.1619 70.9982 66.2756 71.3647 65.5085C71.7354 64.7372 72.2511 64.1364 72.9116 63.706C73.5763 63.2713 74.3519 63.054 75.2383 63.054C75.7496 63.054 76.2546 63.1392 76.7532 63.3097C77.2518 63.4801 77.7056 63.7571 78.1147 64.1406C78.5238 64.5199 78.8498 65.0227 79.0927 65.6491C79.3356 66.2756 79.457 67.0469 79.457 67.9631V68.6023H71.8888V67.2983H77.9229C77.9229 66.7443 77.8121 66.25 77.5906 65.8153C77.3732 65.3807 77.0621 65.0376 76.6573 64.7862C76.2567 64.5348 75.7837 64.4091 75.2383 64.4091C74.6374 64.4091 74.1175 64.5582 73.6786 64.8565C73.244 65.1506 72.9094 65.5341 72.6751 66.0071C72.4407 66.4801 72.3235 66.9872 72.3235 67.5284V68.3977C72.3235 69.1392 72.4513 69.7678 72.707 70.2834C72.967 70.7947 73.3271 71.1847 73.7873 71.4531C74.2475 71.7173 74.7823 71.8494 75.3917 71.8494C75.788 71.8494 76.146 71.794 76.4656 71.6832C76.7894 71.5682 77.0685 71.3977 77.3029 71.1719C77.5373 70.9418 77.7184 70.6562 77.8462 70.3153L79.3036 70.7244C79.1502 71.2188 78.8924 71.6534 78.5302 72.0284C78.168 72.3991 77.7205 72.6889 77.1879 72.8977C76.6552 73.1023 76.0565 73.2045 75.3917 73.2045ZM85.7404 73.2045C84.82 73.2045 84.0273 72.9872 83.3626 72.5526C82.6978 72.1179 82.1864 71.5192 81.8285 70.7564C81.4705 69.9936 81.2915 69.1222 81.2915 68.142C81.2915 67.1449 81.4748 66.2649 81.8413 65.5021C82.212 64.7351 82.7276 64.1364 83.3881 63.706C84.0529 63.2713 84.8285 63.054 85.7148 63.054C86.4052 63.054 87.0273 63.1818 87.5813 63.4375C88.1353 63.6932 88.5891 64.0511 88.9428 64.5114C89.2965 64.9716 89.516 65.5085 89.6012 66.1222H88.0927C87.9776 65.6747 87.7219 65.2784 87.3256 64.9332C86.9336 64.5838 86.4052 64.4091 85.7404 64.4091C85.1523 64.4091 84.6367 64.5625 84.1935 64.8693C83.7546 65.1719 83.4116 65.6001 83.1644 66.1541C82.9215 66.7038 82.8001 67.3494 82.8001 68.0909C82.8001 68.8494 82.9194 69.5099 83.158 70.0724C83.4009 70.6349 83.7418 71.0717 84.1808 71.3828C84.6239 71.6939 85.1438 71.8494 85.7404 71.8494C86.1325 71.8494 86.4883 71.7812 86.8079 71.6449C87.1275 71.5085 87.3981 71.3125 87.6197 71.0568C87.8413 70.8011 87.9989 70.4943 88.0927 70.1364H89.6012C89.516 70.7159 89.305 71.2379 88.9684 71.7024C88.636 72.1626 88.195 72.5291 87.6452 72.8018C87.0998 73.0703 86.4648 73.2045 85.7404 73.2045ZM96.0763 63.1818V64.4602H90.9883V63.1818H96.0763ZM92.4712 60.8295H93.9798V70.1875C93.9798 70.6136 94.0415 70.9332 94.1651 71.1463C94.293 71.3551 94.4549 71.4957 94.6509 71.5682C94.8512 71.6364 95.0621 71.6705 95.2837 71.6705C95.4499 71.6705 95.5863 71.6619 95.6928 71.6449C95.7994 71.6236 95.8846 71.6065 95.9485 71.5938L96.2553 72.9489C96.1531 72.9872 96.0103 73.0256 95.8271 73.0639C95.6438 73.1065 95.4116 73.1278 95.1303 73.1278C94.7042 73.1278 94.2866 73.0362 93.8775 72.853C93.4727 72.6697 93.136 72.3906 92.8675 72.0156C92.6033 71.6406 92.4712 71.1676 92.4712 70.5966V60.8295Z" fill="#17458F"></path>
<defs>
<clipPath id="clip0_3_41">
<rect width="159.692" height="60" fill="white" transform="translate(5 5)"></rect>
</clipPath>
<clipPath id="clip1_3_41">
<rect width="159.692" height="60" fill="white" transform="translate(5 5)"></rect>
</clipPath>
</defs>
</svg>
</g>
</g>
</svg>